<svg width="8" height="7" viewBox="0 0 8 7" fill="none" xmlns="http://www.w3.org/2000/svg">
<path d="M7.45395 0.290792C7.31765 0.104542 7.13326 0 6.94106 0C6.74886 0 6.56447 0.104542 6.42816 0.290792L3.81639 3.83079L1.24099 0.290792C1.10468 0.104542 0.920293 0 0.728094 0C0.535895 0 0.351506 0.104542 0.215197 0.290792C0.147009 0.383755 0.0928855 0.494356 0.0559506 0.616216C0.0190157 0.738075 0 0.868781 0 1.00079C0 1.1328 0.0190157 1.26351 0.0559506 1.38537C0.0928855 1.50723 0.147009 1.61783 0.215197 1.71079L3.29985 5.95079C3.36749 6.04452 3.44795 6.11891 3.5366 6.16968C3.62526 6.22045 3.72035 6.24659 3.81639 6.24659C3.91243 6.24659 4.00752 6.22045 4.09617 6.16968C4.18483 6.11891 4.26529 6.04452 4.33292 5.95079L7.45395 1.71079C7.52214 1.61783 7.57627 1.50723 7.6132 1.38537C7.65014 1.26351 7.66915 1.1328 7.66915 1.00079C7.66915 0.868781 7.65014 0.738075 7.6132 0.616216C7.57627 0.494356 7.52214 0.383755 7.45395 0.290792Z" fill="#666666" fill-opacity="0.8"/>
</svg>
