<svg width="473" height="424" viewBox="0 0 473 424" fill="none" xmlns="http://www.w3.org/2000/svg">
<g clip-path="url(#clip0_133_95)">
<path d="M473 0H0V424H473V0Z" fill="white"/>
<path d="M212.547 11.6827C271.352 7.97396 325.164 27.6124 361.21 61.2142C418.454 84.2484 459.025 131.836 462.614 189.076C467.942 274.13 389.609 348.282 287.647 354.694C259.694 356.459 232.877 352.929 208.557 345.154C207.264 345.266 205.971 345.355 204.656 345.445C102.694 351.857 15.7341 288.116 10.3842 203.084C7.35254 154.513 31.6059 109.494 71.9315 78.6183C103.563 41.2183 154.165 15.3467 212.547 11.6827Z" fill="#D5F0FF"/>
<path fill-rule="evenodd" clip-rule="evenodd" d="M173.954 267.066H296.208C296.648 267.066 297.003 267.384 297.003 267.778V271.01C297.003 271.394 296.648 271.711 296.208 271.711H173.954C173.526 271.711 173.159 271.393 173.159 271.01V267.778C173.159 267.384 173.526 267.066 173.954 267.066Z" fill="#00AEEF"/>
<path fill-rule="evenodd" clip-rule="evenodd" d="M142.492 218.407C155.228 218.451 167.94 218.505 180.64 218.56C193.291 218.604 205.929 218.659 218.556 218.703C221.465 218.714 224.533 220.708 225.339 223.096C227.894 230.635 230.436 238.118 232.954 245.536C235.448 252.92 237.929 260.251 240.398 267.548C241.18 269.849 239.469 271.711 236.633 271.711C224.313 271.711 211.98 271.711 199.647 271.711C187.265 271.711 174.871 271.711 162.452 271.711C159.592 271.711 156.561 269.86 155.693 267.57C152.93 260.229 150.143 252.833 147.332 245.382C144.509 237.877 141.661 230.317 138.8 222.735C137.896 220.346 139.558 218.396 142.492 218.407Z" fill="#00AEEF"/>
<path fill-rule="evenodd" clip-rule="evenodd" d="M142.297 218.407C154.434 218.451 166.535 218.505 178.623 218.56C190.675 218.604 202.715 218.659 214.73 218.703C217.505 218.714 220.426 220.708 221.196 223.096C223.641 230.635 226.048 238.118 228.444 245.536C230.828 252.92 233.187 260.251 235.546 267.548C236.279 269.849 234.654 271.711 231.952 271.711C220.218 271.711 208.484 271.711 196.738 271.711C184.943 271.711 173.147 271.711 161.316 271.711C158.59 271.711 155.705 269.86 154.874 267.57C152.246 260.229 149.594 252.833 146.917 245.382C144.228 237.877 141.514 230.317 138.788 222.735C137.933 220.346 139.51 218.396 142.297 218.407Z" fill="#62CBEC"/>
<path fill-rule="evenodd" clip-rule="evenodd" d="M194.709 244.451C194.733 244.648 194.745 244.856 194.745 245.065C194.745 248.823 191.335 251.88 187.142 251.88C182.938 251.88 179.528 248.823 179.528 245.065C179.528 242.227 181.459 239.794 184.209 238.764C184.564 242.249 187.815 244.966 191.787 244.966C192.826 244.966 193.816 244.78 194.709 244.451Z" fill="white"/>
<path d="M241.852 408.7C345.566 408.7 430.15 404.007 430.15 398.243C430.15 392.486 345.566 387.785 241.852 387.785C138.151 387.785 53.5673 392.486 53.5673 398.243C53.5673 404.007 138.151 408.7 241.852 408.7Z" fill="#DFE6FF"/>
<path fill-rule="evenodd" clip-rule="evenodd" d="M318.508 312.121C313.879 312.245 309.298 312.328 304.716 312.453C304.392 299.841 300.782 281.544 303.836 274.616C306.659 259.764 394.826 258.353 398.76 268.891L397.603 307.516L382.284 306.852C383.209 296.189 388.948 281.171 385.061 274.865C373.675 269.223 330.957 270.633 317.258 279.429C313.324 284.698 318.091 301.251 318.508 312.121Z" fill="#F58A31"/>
<path fill-rule="evenodd" clip-rule="evenodd" d="M402.555 302.828C401.445 307.557 401.583 312.162 400.473 316.892C399.732 322.659 398.159 330.21 394.225 333.363C393.16 341.992 336.002 335.479 281.343 338.299L285.647 308.76L402.555 302.828Z" fill="#53A548" fill-opacity="0.29"/>
<path fill-rule="evenodd" clip-rule="evenodd" d="M344.888 314.278L360.809 279.844L395.335 176.333L437.406 177.785L400.982 315.481L344.888 314.278Z" fill="#53A548" fill-opacity="0.29"/>
<path fill-rule="evenodd" clip-rule="evenodd" d="M283.704 327.139L283.102 341.992L282.13 378.003H302.54L313.509 301.417L283.704 327.139Z" fill="#15489D"/>
<path fill-rule="evenodd" clip-rule="evenodd" d="M388.486 226.823L398.945 222.467C407.508 223.546 413.941 218.028 421.438 215.829L394.317 190.771L405.008 184.962C418.337 197.035 447.495 216.907 445.042 221.139C448.189 225.246 406.998 244.662 387.977 256.403L388.486 226.823Z" fill="#8DAFDC"/>
<path fill-rule="evenodd" clip-rule="evenodd" d="M373.074 224.292L362.198 215.082L354.469 202.262L394.317 190.771L396.492 180.274C376.499 185.087 337.807 190.231 336.511 194.67C329.476 200.644 346.786 234 351.923 253.624L373.074 224.292Z" fill="#8DAFDC"/>
<path fill-rule="evenodd" clip-rule="evenodd" d="M380.664 213.547C373.259 213.589 362.151 213.547 359.513 216.7L339.751 279.844L385.477 288.1C391.494 266.609 397.233 246.032 403.25 224.5C402 221.181 395.937 218.94 390.661 216.202C387.329 215.331 383.996 214.418 380.664 213.547Z" fill="#8DAFDC"/>
<path fill-rule="evenodd" clip-rule="evenodd" d="M339.751 279.844L385.478 288.1C385.2 323.198 321.423 311.955 316.24 316.519L251.584 382.898L228.86 382.193C250.612 354.728 285.694 300.38 293.33 296.273C298.236 291.585 329.754 288.224 339.751 279.844Z" fill="#4B76BA"/>
<path fill-rule="evenodd" clip-rule="evenodd" d="M399.408 196.081L384.737 190.853L380.386 211.722C379.091 218.111 391.679 221.637 393.345 216.119L399.408 196.081Z" fill="#EC825C"/>
<path fill-rule="evenodd" clip-rule="evenodd" d="M410.47 179.527L378.165 172.931C376.314 183.676 372.75 197.948 377.61 204.544C379.368 207.946 389.643 211.224 395.613 210.104C400.38 208.817 408.85 192.637 410.47 179.527Z" fill="#F1AE8E"/>
<path fill-rule="evenodd" clip-rule="evenodd" d="M404.175 181.56C395.196 179.528 380.756 179.445 377.239 175.545C372.889 170.359 360.022 168.699 363.725 162.725C368.075 157.788 390.661 167.869 404.083 170.442C406.443 171.23 405.518 172.557 406.258 173.636C409.637 176.167 417.643 176.54 416.347 181.145C415.19 186.373 408.202 193.343 404.083 199.483C402.185 195.168 406.582 187.285 404.175 181.56Z" fill="#1B174F"/>
<path fill-rule="evenodd" clip-rule="evenodd" d="M401.861 193.094C402.555 190.688 403.296 188.281 403.99 185.833C405.471 183.676 410.053 184.133 410.238 187.161C410.377 191.393 402.694 194.919 401.861 193.094Z" fill="#F1AE8E"/>
<path fill-rule="evenodd" clip-rule="evenodd" d="M302.54 378.003L281.621 378.376C269.217 384.226 242.605 386.757 248.066 395.22C267.32 394.266 286.619 393.312 305.873 392.399C306.659 388.706 304.438 381.695 302.54 378.003Z" fill="#7D80BC"/>
<path fill-rule="evenodd" clip-rule="evenodd" d="M252.093 382.898L228.859 382.193C216.456 388.043 190.723 391.32 196.184 399.784C215.484 398.829 234.737 397.875 253.99 396.962C254.824 393.27 253.991 386.591 252.093 382.898Z" fill="#AF96C6"/>
<path fill-rule="evenodd" clip-rule="evenodd" d="M324.015 326.766C319.665 326.849 315.314 326.973 310.964 327.056C310.64 314.444 307.215 296.148 310.084 289.22C312.815 274.367 390.846 272.957 394.595 283.495L391.772 321.788L384.552 321.456C385.385 310.793 390.846 295.817 387.144 289.469C376.36 283.868 335.863 285.279 322.858 294.033C319.109 299.301 323.645 315.855 324.015 326.766Z" fill="#53A548" fill-opacity="0.29"/>
<path fill-rule="evenodd" clip-rule="evenodd" d="M322.303 332.45L309.066 337.553L310.177 397.668L319.433 397.585L322.303 332.45Z" fill="#53A548" fill-opacity="0.29"/>
<path fill-rule="evenodd" clip-rule="evenodd" d="M394.965 331.454L381.775 336.723C381.358 357.342 382.886 378.003 382.423 398.663L391.726 398.705L394.965 331.454Z" fill="#53A548" fill-opacity="0.29"/>
<path fill-rule="evenodd" clip-rule="evenodd" d="M144.444 283.457L129.675 285.164L109.944 400.328H117.151L144.444 283.457Z" fill="#DEAD73"/>
<path fill-rule="evenodd" clip-rule="evenodd" d="M324.329 283.457L339.098 285.164L358.829 400.328H351.621L324.329 283.457Z" fill="#DEAD73"/>
<path d="M348.136 271.678H120.636V289.488H348.136V271.678Z" fill="#FFCDAD"/>
<path d="M354.398 271.678H114.315V279.36H354.398V271.678Z" fill="#DEAD73"/>
<path fill-rule="evenodd" clip-rule="evenodd" d="M57.2233 264.119C61.9829 261.852 66.6029 266.547 68.6143 270.152C70.6057 273.776 71.7011 278.221 69.9487 281.399C66.0055 281.595 61.7241 278.864 58.9559 275.883C56.1879 272.884 53.2605 267.261 57.2233 264.119Z" fill="#53A548"/>
<path d="M83.284 380.983L81.9844 380.537C89.7359 362.374 83.4289 347.919 76.7514 332.614C72.6847 323.294 68.4795 313.656 67.3202 302.77C66.0088 290.456 68.8932 278.211 76.1381 265.337L77.3802 265.899C61.4711 294.169 69.8976 313.482 78.0469 332.16C84.8255 347.695 91.2278 362.369 83.284 380.983Z" fill="#53A548" fill-opacity="0.8"/>
<path fill-rule="evenodd" clip-rule="evenodd" d="M86.398 285.844C82.7935 282.256 76.64 285.237 73.3739 288.022C70.1277 290.789 67.3796 294.627 67.8178 298.143C71.4422 299.554 76.5205 298.322 80.2643 296.358C84.0084 294.413 88.9072 290.021 86.398 285.844Z" fill="#8DAFDC"/>
<path fill-rule="evenodd" clip-rule="evenodd" d="M50.3927 306.552C53.3601 302.517 59.9317 304.659 63.6159 306.962C67.3001 309.283 70.6456 312.71 70.7852 316.263C67.4396 318.137 62.222 317.566 58.1793 316.138C54.1566 314.692 48.6005 311.014 50.3927 306.552Z" fill="#8DAFDC"/>
<path fill-rule="evenodd" clip-rule="evenodd" d="M92.253 317.423C87.7124 314.817 82.674 319.173 80.3641 322.618C78.0341 326.081 76.5406 330.437 78.0143 333.721C81.9373 334.203 86.458 331.794 89.485 329.027C92.5119 326.242 95.9171 320.851 92.253 317.423Z" fill="#8DAFDC"/>
<path fill-rule="evenodd" clip-rule="evenodd" d="M64.4922 343.629C67.4593 339.594 74.0311 341.737 77.7153 344.057C81.3995 346.36 84.7451 349.806 84.8846 353.34C81.5388 355.214 76.3214 354.661 72.2787 353.215C68.2561 351.787 62.7 348.092 64.4922 343.629Z" fill="#8DAFDC"/>
<path fill-rule="evenodd" clip-rule="evenodd" d="M90.9785 254.586C86.7764 251.569 81.2404 255.389 78.5119 258.603C75.8035 261.798 73.7923 265.993 74.8475 269.403C78.6909 270.278 83.4706 268.314 86.8161 265.85C90.1619 263.387 94.2046 258.353 90.9785 254.586Z" fill="#53A548"/>
<path fill-rule="evenodd" clip-rule="evenodd" d="M73.017 283.545C76.8206 282.117 79.9871 285.991 81.2219 288.865C82.4564 291.739 82.9545 295.184 81.3612 297.487C78.3342 297.398 75.2872 295.059 73.4153 292.614C71.5434 290.168 69.7509 285.687 73.017 283.545Z" fill="#53A548"/>
<path d="M83.9171 374.238L82.6684 373.688C89.9563 360.392 86.2856 349.017 82.3992 336.974C80.0233 329.611 77.5666 321.999 77.5299 313.614C77.4885 304.124 80.6463 294.95 87.1834 285.571L88.3635 286.232C74.0843 306.719 78.9908 321.923 83.7359 336.627C87.6992 348.908 91.4427 360.509 83.9171 374.238Z" fill="#7D80BC"/>
<path fill-rule="evenodd" clip-rule="evenodd" d="M93.5488 301.914C91.0795 298.951 86.1605 300.843 83.472 302.753C80.7636 304.664 78.374 307.413 78.4336 310.126C81.102 311.429 85.0452 310.786 88.0523 309.537C91.0596 308.287 95.1421 305.252 93.5488 301.914Z" fill="#53A548"/>
<path fill-rule="evenodd" clip-rule="evenodd" d="M64.5137 315.428C67.0825 312.554 71.9218 314.589 74.5505 316.57C77.1792 318.57 79.4493 321.39 79.2902 324.103C76.5818 325.317 72.6587 324.568 69.7112 323.229C66.7438 321.872 62.8009 318.712 64.5137 315.428Z" fill="#53A548"/>
<path fill-rule="evenodd" clip-rule="evenodd" d="M95.5403 326.335C92.2944 324.068 88.1123 327.067 86.081 329.548C84.0497 332.03 82.5761 335.261 83.4325 337.849C86.3797 338.474 90.0043 336.921 92.5332 334.993C95.0623 333.065 98.0893 329.173 95.5403 326.335Z" fill="#53A548"/>
<path fill-rule="evenodd" clip-rule="evenodd" d="M72.36 344.561C74.9289 341.669 79.788 343.722 82.4167 345.704C85.0255 347.703 87.3158 350.524 87.1365 353.237C84.448 354.451 80.5051 353.701 77.5578 352.344C74.6103 351.006 70.6473 347.846 72.36 344.561Z" fill="#53A548"/>
<path fill-rule="evenodd" clip-rule="evenodd" d="M99.4634 278.404C96.5161 275.833 91.9954 278.404 89.6654 280.671C87.3354 282.938 85.4834 286.009 86.0411 288.669C88.8888 289.579 92.6725 288.383 95.4206 286.705C98.1491 285.045 101.634 281.456 99.4634 278.404Z" fill="#53A548"/>
<path fill-rule="evenodd" clip-rule="evenodd" d="M106.806 343.249C104.416 339.554 98.4814 341.143 95.0962 343.017C91.6908 344.892 88.5444 347.784 88.2256 350.908C91.0932 352.711 95.7333 352.461 99.3778 351.372C103.022 350.283 108.16 347.284 106.806 343.249Z" fill="#53A548"/>
<path fill-rule="evenodd" clip-rule="evenodd" d="M117.759 273.254C113.676 271.022 109.315 274.968 107.344 278.074C105.352 281.18 104.137 285.054 105.511 287.946C108.996 288.303 112.939 286.089 115.568 283.572C118.177 281.055 121.084 276.217 117.759 273.254Z" fill="#53A548"/>
<path d="M88.0009 375.446C82.0225 358.593 88.5234 345.896 95.4058 332.453C103.666 316.32 112.207 299.638 99.7555 273.931L101.032 273.434C106.714 285.167 108.572 296.143 106.711 306.99C105.066 316.575 100.798 324.911 96.6706 332.974C89.9036 346.191 83.5117 358.675 89.327 375.068L88.0009 375.446Z" fill="#53A548" fill-opacity="0.8"/>
<path fill-rule="evenodd" clip-rule="evenodd" d="M90.715 291.141C94.1005 288.124 99.378 291.052 102.106 293.658C104.834 296.247 107.025 299.781 106.447 302.87C103.162 303.958 98.7406 302.62 95.5344 300.727C92.3478 298.817 88.2457 294.729 90.715 291.141Z" fill="#53A548"/>
<path fill-rule="evenodd" clip-rule="evenodd" d="M121.383 311.099C118.993 307.386 113.059 308.975 109.653 310.867C106.268 312.741 103.122 315.615 102.803 318.739C105.65 320.56 110.31 320.292 113.955 319.221C117.58 318.132 122.717 315.115 121.383 311.099Z" fill="#53A548"/>
<path fill-rule="evenodd" clip-rule="evenodd" d="M83.7449 318.793C87.907 316.704 92.1089 320.774 93.961 323.934C95.8329 327.094 96.8884 331.021 95.4147 333.859C91.9098 334.127 88.0662 331.771 85.5371 329.182C83.028 326.594 80.2998 321.667 83.7449 318.793Z" fill="#53A548"/>
<path fill-rule="evenodd" clip-rule="evenodd" d="M88.4446 263.293C92.328 260.794 97.0078 264.435 99.2184 267.399C101.449 270.362 103.002 274.147 101.867 277.128C98.4218 277.717 94.2994 275.771 91.4915 273.433C88.6639 271.094 85.3581 266.47 88.4446 263.293Z" fill="#53A548"/>
<path fill-rule="evenodd" clip-rule="evenodd" d="M141.761 299.793C139.133 296.955 134.333 299.079 131.764 301.114C129.175 303.149 126.965 306.023 127.184 308.719C129.912 309.897 133.835 309.076 136.743 307.666C139.671 306.273 143.554 303.042 141.761 299.793Z" fill="#53A548"/>
<path d="M86.8158 375.801L85.425 375.772C85.8176 360.474 95.1061 351.728 104.94 342.468C116.714 331.382 128.888 319.918 126.75 295.826L128.136 295.727C129.116 306.757 127.201 316.205 122.284 324.61C117.94 332.036 111.843 337.777 105.948 343.328C96.3045 352.408 87.1961 360.985 86.8158 375.801Z" fill="#7D80BC"/>
<path fill-rule="evenodd" clip-rule="evenodd" d="M114.1 307.612C117.804 306.005 121.21 309.719 122.624 312.521C124.037 315.324 124.734 318.751 123.281 321.144C120.254 321.197 117.068 319.001 115.056 316.645C113.025 314.289 110.974 309.915 114.1 307.612Z" fill="#53A548"/>
<path fill-rule="evenodd" clip-rule="evenodd" d="M132.9 331.604C132.103 327.981 126.766 327.784 123.4 328.463C120.054 329.159 116.59 330.712 115.335 333.193C117.107 335.389 120.991 336.335 124.296 336.371C127.602 336.407 132.74 335.228 132.9 331.604Z" fill="#53A548"/>
<path fill-rule="evenodd" clip-rule="evenodd" d="M99.7618 328.445C103.805 327.784 105.975 332.176 106.513 335.21C107.031 338.263 106.692 341.726 104.581 343.672C101.654 343.011 99.224 340.137 97.9893 337.37C96.7349 334.621 96.0578 329.926 99.7618 328.445Z" fill="#53A548"/>
<path fill-rule="evenodd" clip-rule="evenodd" d="M110.954 354.204C110.157 350.58 104.8 350.384 101.454 351.062C98.109 351.759 94.6239 353.312 93.3891 355.793C95.1615 357.989 99.0249 358.935 102.351 358.971C105.657 359.006 110.794 357.828 110.954 354.204Z" fill="#53A548"/>
<path fill-rule="evenodd" clip-rule="evenodd" d="M120.951 284.298C124.894 283.227 127.582 287.387 128.478 290.368C129.355 293.331 129.434 296.83 127.582 298.954C124.595 298.58 121.827 295.955 120.254 293.349C118.68 290.725 117.446 286.119 120.951 284.298Z" fill="#53A548"/>
<path fill-rule="evenodd" clip-rule="evenodd" d="M34.9046 292.673C38.0311 289.87 42.9101 292.566 45.4194 294.958C47.9485 297.368 49.9997 300.617 49.4618 303.473C46.415 304.472 42.3326 303.259 39.3853 301.509C36.4179 299.76 32.6342 295.975 34.9046 292.673Z" fill="#53A548"/>
<path d="M86.4996 378.617L85.1116 378.53C86.3424 362.698 77.576 352.744 68.2951 342.206C62.6271 335.77 56.7662 329.115 52.9588 320.825C48.65 311.442 47.6531 301.218 49.9115 289.567L51.2822 289.78C46.342 315.266 58.0572 328.569 69.3872 341.433C78.8397 352.166 87.7678 362.304 86.4996 378.617Z" fill="#7D80BC"/>
<path fill-rule="evenodd" clip-rule="evenodd" d="M63.5215 303.455C59.7576 301.402 55.7151 305.061 53.9028 307.918C52.0905 310.792 50.9754 314.38 52.2499 317.04C55.4562 317.379 59.1006 315.326 61.5101 312.987C63.9198 310.667 66.6081 306.186 63.5215 303.455Z" fill="#53A548"/>
<path fill-rule="evenodd" clip-rule="evenodd" d="M40.8391 327.34C42.0937 323.556 47.809 323.823 51.294 324.841C54.799 325.876 58.3237 327.858 59.3792 330.589C57.2484 332.785 53.0068 333.445 49.4817 333.178C45.9569 332.928 40.6 331.232 40.8391 327.34Z" fill="#53A548"/>
<path fill-rule="evenodd" clip-rule="evenodd" d="M76.5059 326.93C72.264 325.859 69.456 330.339 68.5599 333.535C67.6638 336.73 67.6638 340.461 69.675 342.728C72.8813 342.264 75.7689 339.408 77.402 336.587C79.0348 333.767 80.2894 328.822 76.5059 326.93Z" fill="#53A548"/>
<path fill-rule="evenodd" clip-rule="evenodd" d="M61.7291 353.368C62.9837 349.583 68.6992 349.851 72.1843 350.868C75.6892 351.904 79.214 353.885 80.2695 356.616C78.1387 358.812 73.9169 359.473 70.372 359.205C66.8472 358.955 61.5101 357.259 61.7291 353.368Z" fill="#53A548"/>
<path fill-rule="evenodd" clip-rule="evenodd" d="M58.8017 277.999C54.7192 276.517 51.3936 280.712 50.1191 283.801C48.8247 286.889 48.3666 290.602 50.1191 293.03C53.3452 292.905 56.5713 290.352 58.5229 287.71C60.4946 285.05 62.3267 280.248 58.8017 277.999Z" fill="#53A548"/>
<path fill-rule="evenodd" clip-rule="evenodd" d="M95.6319 401.064L98.1411 394.441L109.333 364.897H86.9492H64.5851L75.777 394.441L78.2862 401.064H88.3032H95.6319Z" fill="#53A548"/>
<path fill-rule="evenodd" clip-rule="evenodd" d="M64.625 362.916H109.692C110.906 362.916 111.902 363.809 111.902 364.898V365.023C111.902 366.111 110.906 367.004 109.692 367.004H64.625C63.4101 367.004 62.4147 366.112 62.4147 365.023V364.898C62.4145 363.809 63.4101 362.916 64.625 362.916Z" fill="#F39D20"/>
<path fill-rule="evenodd" clip-rule="evenodd" d="M286.386 40.7154H85.1116C79.2478 40.7154 74.463 45.365 74.463 51.063V164.214C74.463 169.911 79.2478 174.561 85.1116 174.561H228.524L265.78 211.301C268.491 213.828 270.814 213.129 270.897 212V174.561H286.386C292.25 174.561 297.035 169.911 297.035 164.213V51.0627C297.035 45.365 292.25 40.7154 286.386 40.7154Z" fill="#53A548" fill-opacity="0.4"/>
<path fill-rule="evenodd" clip-rule="evenodd" d="M294.03 34.4994H92.755C86.8913 34.4994 82.1064 39.1759 82.1064 44.8469V157.997C82.1064 163.695 86.8915 168.345 92.755 168.345H236.167L273.424 205.085C276.135 207.638 278.458 206.94 278.541 205.784V168.345H294.03C299.894 168.345 304.679 163.695 304.679 157.997V44.8469C304.679 39.1759 299.894 34.4994 294.03 34.4994Z" fill="white"/>
<path fill-rule="evenodd" clip-rule="evenodd" d="M192.644 105.366C197.361 105.398 201.185 108.883 201.15 113.11L200.873 144.286C200.837 148.513 196.951 151.95 192.225 151.91C187.509 151.878 183.685 148.393 183.72 144.166L183.997 112.99C184.032 108.763 187.919 105.334 192.644 105.366Z" fill="#4B76BA"/>
<path fill-rule="evenodd" clip-rule="evenodd" d="M193.17 45.7479C216.725 45.9158 235.67 63.1699 235.491 84.2921C235.358 98.5253 226.567 110.889 213.631 117.378L213.559 125.985L171.363 125.681L171.444 117.074C158.623 110.401 150.047 97.9177 150.172 83.6845C150.359 62.5625 169.607 45.58 193.17 45.7479Z" fill="#F2A220"/>
<path fill-rule="evenodd" clip-rule="evenodd" d="M207.56 125.897L177.364 125.681L177.435 117.25C165.756 110.713 157.955 98.4852 158.08 84.5316C158.249 65.2475 173.503 49.4719 192.948 47.5378C212.561 49.5758 227.744 65.6471 227.566 85.0671C227.441 99.0208 219.426 111.136 207.64 117.506L207.56 125.897Z" fill="#DEAD73"/>
<path d="M186.927 126.779L186.148 126.773C186.21 119.73 186.215 112.422 186.219 105.354C186.222 101.116 186.224 96.7909 186.24 92.488C185.568 92.4343 184.905 92.3883 184.259 92.3436C178.716 91.9586 173.928 91.6262 173.375 86.9743C173.096 85.0107 173.66 83.2808 175.008 81.9785C176.169 80.8568 177.849 80.1144 179.739 79.8884C181.444 79.6844 183.113 79.9253 184.438 80.5664C185.932 81.2891 186.84 82.4364 187.066 83.8842L187.07 83.9096L187.07 83.9353C187.046 86.5431 187.031 89.1871 187.021 91.842C190.707 91.913 194.853 91.9925 198.931 92.0635C198.925 91.9162 198.916 91.753 198.907 91.5774C198.792 89.3845 198.577 85.3024 201.1 82.8278C202.36 81.5927 204.149 80.9219 206.42 80.8345L206.444 80.8337L206.469 80.8356C208.627 80.9988 210.229 81.7421 211.23 83.0446C212.536 84.7423 212.468 87.0122 212.012 88.4456C211.559 90.2832 209.914 91.5374 207.123 92.1738C204.812 92.7004 202.154 92.7333 200.018 92.7598C199.915 92.761 199.813 92.7623 199.713 92.7636L198.989 126.479L198.21 126.466L198.933 92.7621C194.854 92.6911 190.706 92.6114 187.018 92.5405C187.003 96.8259 187 101.133 186.998 105.355C186.994 112.423 186.989 119.733 186.927 126.779ZM206.428 81.5331C204.384 81.616 202.785 82.21 201.676 83.2986C199.371 85.5592 199.575 89.4528 199.685 91.5446C199.695 91.733 199.704 91.9071 199.711 92.065C199.808 92.0638 199.907 92.0625 200.007 92.0614C204.132 92.0101 210.366 91.933 211.253 88.2855L211.259 88.2634C211.672 86.977 211.743 84.9423 210.589 83.4409C209.73 82.3232 208.33 81.6815 206.428 81.5331ZM180.905 80.517C180.551 80.517 180.195 80.5382 179.842 80.5804C176.617 80.9662 173.605 83.0677 174.148 86.8931C174.373 88.7858 175.341 89.9374 177.287 90.6338C179.106 91.2851 181.522 91.4528 184.319 91.6472C184.946 91.6906 185.589 91.7354 186.242 91.7871C186.252 89.1577 186.267 86.5393 186.29 83.9558C185.909 81.6122 183.449 80.517 180.905 80.517Z" fill="white"/>
<path fill-rule="evenodd" clip-rule="evenodd" d="M213.56 124.219C213.569 124.338 213.578 124.458 213.569 124.586L213.435 139.643C213.417 142.592 210.707 144.981 207.417 144.957L177.168 144.741C173.887 144.717 171.221 142.288 171.239 139.347L171.373 124.282C171.382 124.163 171.382 124.035 171.391 123.915L213.56 124.219Z" fill="#8DAFDC"/>
<path d="M219.676 75.5602C219.664 75.5602 219.652 75.5602 219.64 75.5598C218.742 75.542 218.03 74.875 218.05 74.07C218.205 67.7785 213.137 58.2695 203.569 57.5334C202.674 57.4645 202.011 56.7586 202.088 55.9563C202.164 55.1541 202.951 54.5599 203.847 54.6286C206.723 54.8499 209.392 55.6909 211.778 57.1285C213.873 58.3905 215.71 60.085 217.239 62.165C219.839 65.7026 221.396 70.2892 221.301 74.1347C221.282 74.9284 220.558 75.5602 219.676 75.5602Z" fill="white"/>
<path d="M214.199 128.028H170.342C168.284 128.028 166.616 126.533 166.616 124.689C166.616 122.845 168.284 121.35 170.342 121.35H214.199C216.256 121.35 217.924 122.845 217.924 124.689C217.924 126.533 216.257 128.028 214.199 128.028Z" fill="#4B76BA"/>
<path d="M214.199 137.299H170.341C168.284 137.299 166.616 135.804 166.616 133.959C166.616 132.115 168.284 130.62 170.341 130.62H214.199C216.256 130.62 217.924 132.115 217.924 133.959C217.924 135.804 216.257 137.299 214.199 137.299Z" fill="#4B76BA"/>
</g>
<defs>
<clipPath id="clip0_133_95">
<rect width="473" height="424" fill="white"/>
</clipPath>
</defs>
</svg>
