<svg width="116" height="116" viewBox="0 0 116 116" fill="none" xmlns="http://www.w3.org/2000/svg">
<path d="M58 116C46.5287 116 35.315 112.598 25.7769 106.225C16.2389 99.8521 8.80489 90.7938 4.41501 80.1956C0.0251303 69.5975 -1.12346 57.9357 1.11448 46.6848C3.35242 35.4339 8.87639 25.0993 16.9878 16.9878C25.0993 8.87639 35.4339 3.35242 46.6848 1.11448C57.9357 -1.12346 69.5975 0.0251303 80.1956 4.41501C90.7938 8.80489 99.8521 16.2389 106.225 25.7769C112.598 35.315 116 46.5287 116 58C116 73.3826 109.889 88.1351 99.0122 99.0122C88.1351 109.889 73.3826 116 58 116ZM58 5.52383C47.6212 5.52383 37.4755 8.60151 28.8458 14.3677C20.2161 20.1338 13.4901 28.3295 9.51835 37.9183C5.54655 47.507 4.50735 58.0582 6.53215 68.2376C8.55696 78.417 13.5548 87.7673 20.8938 95.1063C28.2327 102.445 37.583 107.443 47.7624 109.468C57.9418 111.493 68.493 110.453 78.0818 106.482C87.6705 102.51 95.8662 95.7839 101.632 87.1542C107.399 78.5246 110.476 68.3788 110.476 58C110.476 44.0825 104.947 30.7349 95.1063 20.8938C85.2651 11.0526 71.9176 5.52383 58 5.52383Z" fill="#4C934C" fill-opacity="0.13"/>
</svg>
