<svg width="56" height="56" viewBox="0 0 56 56" fill="none" xmlns="http://www.w3.org/2000/svg">
<circle cx="28" cy="28" r="28" fill="#322EFC" fill-opacity="0.57"/>
<path d="M50 28C50 33.8348 47.6822 39.4305 43.5563 43.5563C39.4305 47.6822 33.8348 50 28 50C22.1652 50 16.5695 47.6822 12.4437 43.5563C8.31785 39.4305 6 33.8348 6 28C6 22.1652 8.31785 16.5695 12.4437 12.4437C16.5695 8.31785 22.1652 6 28 6C33.8348 6 39.4305 8.31785 43.5563 12.4437C47.6822 16.5695 50 22.1652 50 28Z" fill="#2980B9"/>
<path d="M25.8 14.8V19.2H30.2V14.8H25.8ZM23.6 23.6L21.4 25.8H25.8V39H21.4V41.2H23.6H32.4H34.6V39H30.2V23.6H23.6Z" fill="#2980B9"/>
<path d="M25.8 12.6001V17.0001H30.2V12.6001H25.8ZM23.6 21.4001L21.4 23.6001H25.8V36.8001H21.4V39.0001H23.6H32.4H34.6V36.8001H30.2V21.4001H23.6Z" fill="#ECF0F1"/>
</svg>
