<svg width="391" height="974" viewBox="0 0 391 974" fill="none" xmlns="http://www.w3.org/2000/svg">
<rect width="391" height="974" rx="6.10561" fill="#FEFEFE"/>
<path d="M23.912 16.418V27.538H22.088V19.922L18.696 27.538H17.432L14.024 19.922V27.538H12.2V16.418H14.168L18.072 25.138L21.96 16.418H23.912ZM30.1334 27.682C29.3014 27.682 28.5494 27.4953 27.8774 27.122C27.2054 26.738 26.6774 26.2046 26.2934 25.522C25.9094 24.8286 25.7174 24.0286 25.7174 23.122C25.7174 22.226 25.9147 21.4313 26.3094 20.738C26.704 20.0446 27.2427 19.5113 27.9254 19.138C28.608 18.7646 29.3707 18.578 30.2134 18.578C31.056 18.578 31.8187 18.7646 32.5014 19.138C33.184 19.5113 33.7227 20.0446 34.1174 20.738C34.512 21.4313 34.7094 22.226 34.7094 23.122C34.7094 24.018 34.5067 24.8126 34.1014 25.506C33.696 26.1993 33.1414 26.738 32.4374 27.122C31.744 27.4953 30.976 27.682 30.1334 27.682ZM30.1334 26.098C30.6027 26.098 31.04 25.986 31.4454 25.762C31.8614 25.538 32.1974 25.202 32.4534 24.754C32.7094 24.306 32.8374 23.762 32.8374 23.122C32.8374 22.482 32.7147 21.9433 32.4694 21.506C32.224 21.058 31.8987 20.722 31.4934 20.498C31.088 20.274 30.6507 20.162 30.1814 20.162C29.712 20.162 29.2747 20.274 28.8694 20.498C28.4747 20.722 28.16 21.058 27.9254 21.506C27.6907 21.9433 27.5734 22.482 27.5734 23.122C27.5734 24.0713 27.8134 24.8073 28.2934 25.33C28.784 25.842 29.3974 26.098 30.1334 26.098ZM39.9205 25.906L42.4165 18.722H44.3525L40.9925 27.538H38.8165L35.4725 18.722H37.4245L39.9205 25.906ZM46.6593 17.554C46.3286 17.554 46.0513 17.442 45.8273 17.218C45.6033 16.994 45.4913 16.7166 45.4913 16.386C45.4913 16.0553 45.6033 15.778 45.8273 15.554C46.0513 15.33 46.3286 15.218 46.6593 15.218C46.9793 15.218 47.2513 15.33 47.4753 15.554C47.6993 15.778 47.8113 16.0553 47.8113 16.386C47.8113 16.7166 47.6993 16.994 47.4753 17.218C47.2513 17.442 46.9793 17.554 46.6593 17.554ZM47.5553 18.722V27.538H45.7313V18.722H47.5553ZM54.398 18.578C55.0913 18.578 55.71 18.722 56.254 19.01C56.8087 19.298 57.2407 19.7246 57.55 20.29C57.8593 20.8553 58.014 21.538 58.014 22.338V27.538H56.206V22.61C56.206 21.8206 56.0087 21.218 55.614 20.802C55.2193 20.3753 54.6807 20.162 53.998 20.162C53.3153 20.162 52.7713 20.3753 52.366 20.802C51.9713 21.218 51.774 21.8206 51.774 22.61V27.538H49.95V18.722H51.774V19.73C52.0727 19.3673 52.4513 19.0846 52.91 18.882C53.3793 18.6793 53.8753 18.578 54.398 18.578ZM63.8926 18.578C64.5753 18.578 65.178 18.7166 65.7006 18.994C66.234 19.2606 66.65 19.5966 66.9486 20.002V18.722H68.7886V27.682C68.7886 28.4926 68.618 29.2126 68.2766 29.842C67.9353 30.482 67.4393 30.9833 66.7886 31.346C66.1486 31.7086 65.3806 31.89 64.4846 31.89C63.29 31.89 62.298 31.6073 61.5086 31.042C60.7193 30.4873 60.2713 29.73 60.1646 28.77H61.9726C62.1113 29.2286 62.4046 29.5966 62.8526 29.874C63.3113 30.162 63.8553 30.306 64.4846 30.306C65.2206 30.306 65.8126 30.082 66.2606 29.634C66.7193 29.186 66.9486 28.5353 66.9486 27.682V26.21C66.6393 26.626 66.218 26.978 65.6846 27.266C65.162 27.5433 64.5646 27.682 63.8926 27.682C63.1246 27.682 62.4206 27.49 61.7806 27.106C61.1513 26.7113 60.65 26.1673 60.2766 25.474C59.914 24.77 59.7326 23.9753 59.7326 23.09C59.7326 22.2046 59.914 21.4206 60.2766 20.738C60.65 20.0553 61.1513 19.5273 61.7806 19.154C62.4206 18.77 63.1246 18.578 63.8926 18.578ZM66.9486 23.122C66.9486 22.514 66.8206 21.986 66.5646 21.538C66.3193 21.09 65.994 20.7486 65.5886 20.514C65.1833 20.2793 64.746 20.162 64.2766 20.162C63.8073 20.162 63.37 20.2793 62.9646 20.514C62.5593 20.738 62.2286 21.074 61.9726 21.522C61.7273 21.9593 61.6046 22.482 61.6046 23.09C61.6046 23.698 61.7273 24.2313 61.9726 24.69C62.2286 25.1486 62.5593 25.5006 62.9646 25.746C63.3806 25.9806 63.818 26.098 64.2766 26.098C64.746 26.098 65.1833 25.9806 65.5886 25.746C65.994 25.5113 66.3193 25.17 66.5646 24.722C66.8206 24.2633 66.9486 23.73 66.9486 23.122ZM79.0046 27.65C78.258 27.65 77.586 27.522 76.9886 27.266C76.3913 26.9993 75.922 26.626 75.5806 26.146C75.2393 25.666 75.0686 25.106 75.0686 24.466H77.0206C77.0633 24.946 77.25 25.3406 77.5806 25.65C77.922 25.9593 78.3966 26.114 79.0046 26.114C79.634 26.114 80.1246 25.9646 80.4766 25.666C80.8286 25.3566 81.0046 24.962 81.0046 24.482C81.0046 24.1086 80.8926 23.8046 80.6686 23.57C80.4553 23.3353 80.1833 23.154 79.8526 23.026C79.5326 22.898 79.0846 22.7593 78.5086 22.61C77.7833 22.418 77.1913 22.226 76.7326 22.034C76.2846 21.8313 75.9006 21.522 75.5806 21.106C75.2606 20.69 75.1006 20.1353 75.1006 19.442C75.1006 18.802 75.2606 18.242 75.5806 17.762C75.9006 17.282 76.3486 16.914 76.9246 16.658C77.5006 16.402 78.1673 16.274 78.9246 16.274C80.002 16.274 80.882 16.546 81.5646 17.09C82.258 17.6233 82.642 18.3593 82.7166 19.298H80.7006C80.6686 18.8926 80.4766 18.546 80.1246 18.258C79.7726 17.97 79.3086 17.826 78.7326 17.826C78.21 17.826 77.7833 17.9593 77.4526 18.226C77.122 18.4926 76.9566 18.8766 76.9566 19.378C76.9566 19.7193 77.058 20.002 77.2606 20.226C77.474 20.4393 77.7406 20.61 78.0606 20.738C78.3806 20.866 78.818 21.0046 79.3726 21.154C80.1086 21.3566 80.706 21.5593 81.1646 21.762C81.634 21.9646 82.0286 22.2793 82.3486 22.706C82.6793 23.122 82.8446 23.682 82.8446 24.386C82.8446 24.9513 82.69 25.4846 82.3806 25.986C82.082 26.4873 81.6393 26.8926 81.0526 27.202C80.4766 27.5006 79.794 27.65 79.0046 27.65ZM87.1249 20.21V25.09C87.1249 25.4206 87.1995 25.6606 87.3489 25.81C87.5089 25.9486 87.7755 26.018 88.1489 26.018H89.2689V27.538H87.8289C87.0075 27.538 86.3782 27.346 85.9409 26.962C85.5035 26.578 85.2849 25.954 85.2849 25.09V20.21H84.2449V18.722H85.2849V16.53H87.1249V18.722H89.2689V20.21H87.1249ZM90.342 23.09C90.342 22.2046 90.5233 21.4206 90.886 20.738C91.2593 20.0553 91.7607 19.5273 92.39 19.154C93.03 18.77 93.734 18.578 94.502 18.578C95.1953 18.578 95.798 18.7166 96.31 18.994C96.8327 19.2606 97.2487 19.5966 97.558 20.002V18.722H99.398V27.538H97.558V26.226C97.2487 26.642 96.8273 26.9886 96.294 27.266C95.7607 27.5433 95.1527 27.682 94.47 27.682C93.7127 27.682 93.0193 27.49 92.39 27.106C91.7607 26.7113 91.2593 26.1673 90.886 25.474C90.5233 24.77 90.342 23.9753 90.342 23.09ZM97.558 23.122C97.558 22.514 97.43 21.986 97.174 21.538C96.9287 21.09 96.6033 20.7486 96.198 20.514C95.7927 20.2793 95.3553 20.162 94.886 20.162C94.4167 20.162 93.9793 20.2793 93.574 20.514C93.1687 20.738 92.838 21.074 92.582 21.522C92.3367 21.9593 92.214 22.482 92.214 23.09C92.214 23.698 92.3367 24.2313 92.582 24.69C92.838 25.1486 93.1687 25.5006 93.574 25.746C93.99 25.9806 94.4273 26.098 94.886 26.098C95.3553 26.098 95.7927 25.9806 96.198 25.746C96.6033 25.5113 96.9287 25.17 97.174 24.722C97.43 24.2633 97.558 23.73 97.558 23.122ZM103.922 20.21V25.09C103.922 25.4206 103.996 25.6606 104.146 25.81C104.306 25.9486 104.572 26.018 104.946 26.018H106.066V27.538H104.626C103.804 27.538 103.175 27.346 102.738 26.962C102.3 26.578 102.082 25.954 102.082 25.09V20.21H101.042V18.722H102.082V16.53H103.922V18.722H106.066V20.21H103.922ZM115.731 18.722V27.538H113.907V26.498C113.619 26.8606 113.24 27.1486 112.771 27.362C112.312 27.5646 111.822 27.666 111.299 27.666C110.606 27.666 109.982 27.522 109.427 27.234C108.883 26.946 108.451 26.5193 108.131 25.954C107.822 25.3886 107.667 24.706 107.667 23.906V18.722H109.475V23.634C109.475 24.4233 109.672 25.0313 110.067 25.458C110.462 25.874 111 26.082 111.683 26.082C112.366 26.082 112.904 25.874 113.299 25.458C113.704 25.0313 113.907 24.4233 113.907 23.634V18.722H115.731ZM121.338 27.682C120.644 27.682 120.02 27.5593 119.466 27.314C118.922 27.058 118.49 26.7166 118.17 26.29C117.85 25.8526 117.679 25.3673 117.658 24.834H119.546C119.578 25.2073 119.754 25.522 120.074 25.778C120.404 26.0233 120.815 26.146 121.306 26.146C121.818 26.146 122.212 26.05 122.49 25.858C122.778 25.6553 122.922 25.3993 122.922 25.09C122.922 24.7593 122.762 24.514 122.442 24.354C122.132 24.194 121.636 24.018 120.954 23.826C120.292 23.6446 119.754 23.4686 119.338 23.298C118.922 23.1273 118.559 22.866 118.25 22.514C117.951 22.162 117.802 21.698 117.802 21.122C117.802 20.6526 117.94 20.226 118.218 19.842C118.495 19.4473 118.89 19.138 119.402 18.914C119.924 18.69 120.522 18.578 121.194 18.578C122.196 18.578 123.002 18.834 123.61 19.346C124.228 19.8473 124.559 20.5353 124.602 21.41H122.778C122.746 21.0153 122.586 20.7006 122.298 20.466C122.01 20.2313 121.62 20.114 121.13 20.114C120.65 20.114 120.282 20.2046 120.026 20.386C119.77 20.5673 119.642 20.8073 119.642 21.106C119.642 21.3406 119.727 21.538 119.898 21.698C120.068 21.858 120.276 21.986 120.522 22.082C120.767 22.1673 121.13 22.2793 121.61 22.418C122.25 22.5886 122.772 22.7646 123.178 22.946C123.594 23.1166 123.951 23.3726 124.25 23.714C124.548 24.0553 124.703 24.5086 124.714 25.074C124.714 25.5753 124.575 26.0233 124.298 26.418C124.02 26.8126 123.626 27.122 123.114 27.346C122.612 27.57 122.02 27.682 121.338 27.682ZM127.42 27.65C127.09 27.65 126.812 27.538 126.588 27.314C126.364 27.09 126.252 26.8126 126.252 26.482C126.252 26.1513 126.364 25.874 126.588 25.65C126.812 25.426 127.09 25.314 127.42 25.314C127.74 25.314 128.012 25.426 128.236 25.65C128.46 25.874 128.572 26.1513 128.572 26.482C128.572 26.8126 128.46 27.09 128.236 27.314C128.012 27.538 127.74 27.65 127.42 27.65ZM131.28 27.65C130.949 27.65 130.672 27.538 130.448 27.314C130.224 27.09 130.112 26.8126 130.112 26.482C130.112 26.1513 130.224 25.874 130.448 25.65C130.672 25.426 130.949 25.314 131.28 25.314C131.6 25.314 131.872 25.426 132.096 25.65C132.32 25.874 132.432 26.1513 132.432 26.482C132.432 26.8126 132.32 27.09 132.096 27.314C131.872 27.538 131.6 27.65 131.28 27.65ZM135.139 27.65C134.808 27.65 134.531 27.538 134.307 27.314C134.083 27.09 133.971 26.8126 133.971 26.482C133.971 26.1513 134.083 25.874 134.307 25.65C134.531 25.426 134.808 25.314 135.139 25.314C135.459 25.314 135.731 25.426 135.955 25.65C136.179 25.874 136.291 26.1513 136.291 26.482C136.291 26.8126 136.179 27.09 135.955 27.314C135.731 27.538 135.459 27.65 135.139 27.65ZM138.999 27.65C138.668 27.65 138.391 27.538 138.167 27.314C137.943 27.09 137.831 26.8126 137.831 26.482C137.831 26.1513 137.943 25.874 138.167 25.65C138.391 25.426 138.668 25.314 138.999 25.314C139.319 25.314 139.591 25.426 139.815 25.65C140.039 25.874 140.151 26.1513 140.151 26.482C140.151 26.8126 140.039 27.09 139.815 27.314C139.591 27.538 139.319 27.65 138.999 27.65ZM142.858 27.65C142.527 27.65 142.25 27.538 142.026 27.314C141.802 27.09 141.69 26.8126 141.69 26.482C141.69 26.1513 141.802 25.874 142.026 25.65C142.25 25.426 142.527 25.314 142.858 25.314C143.178 25.314 143.45 25.426 143.674 25.65C143.898 25.874 144.01 26.1513 144.01 26.482C144.01 26.8126 143.898 27.09 143.674 27.314C143.45 27.538 143.178 27.65 142.858 27.65ZM146.717 27.65C146.387 27.65 146.109 27.538 145.885 27.314C145.661 27.09 145.549 26.8126 145.549 26.482C145.549 26.1513 145.661 25.874 145.885 25.65C146.109 25.426 146.387 25.314 146.717 25.314C147.037 25.314 147.309 25.426 147.533 25.65C147.757 25.874 147.869 26.1513 147.869 26.482C147.869 26.8126 147.757 27.09 147.533 27.314C147.309 27.538 147.037 27.65 146.717 27.65ZM150.577 27.65C150.246 27.65 149.969 27.538 149.745 27.314C149.521 27.09 149.409 26.8126 149.409 26.482C149.409 26.1513 149.521 25.874 149.745 25.65C149.969 25.426 150.246 25.314 150.577 25.314C150.897 25.314 151.169 25.426 151.393 25.65C151.617 25.874 151.729 26.1513 151.729 26.482C151.729 26.8126 151.617 27.09 151.393 27.314C151.169 27.538 150.897 27.65 150.577 27.65Z" fill="#353535" fill-opacity="0.79"/>
<rect x="7" y="66" width="370" height="898" rx="6.10561" fill="#F0F0F0"/>
<rect x="10.5544" y="46.1716" width="120.891" height="8.54785" rx="2.44224" fill="#D9D9D9"/>
<rect x="135.554" y="46.1716" width="120.891" height="8.54785" rx="2.44224" fill="#D9D9D9"/>
<rect x="260.109" y="46.1716" width="120.891" height="8.54785" rx="2.44224" fill="#D9D9D9"/>
<path d="M302.543 37.0131H306.426C306.547 37.0138 306.666 36.9907 306.778 36.9452C306.889 36.8996 306.991 36.8324 307.076 36.7476L313.414 30.4008L316.015 27.8547C316.101 27.7696 316.169 27.6683 316.215 27.5567C316.262 27.4451 316.286 27.3254 316.286 27.2045C316.286 27.0836 316.262 26.9639 316.215 26.8523C316.169 26.7407 316.101 26.6394 316.015 26.5542L312.132 22.6253C312.047 22.5394 311.945 22.4713 311.834 22.4248C311.722 22.3783 311.602 22.3544 311.482 22.3544C311.361 22.3544 311.241 22.3783 311.129 22.4248C311.018 22.4713 310.916 22.5394 310.831 22.6253L308.249 25.2171L301.893 31.5639C301.808 31.6495 301.741 31.751 301.695 31.8625C301.649 31.9741 301.626 32.0936 301.627 32.2141V36.0973C301.627 36.3402 301.724 36.5731 301.895 36.7449C302.067 36.9167 302.3 37.0131 302.543 37.0131ZM311.482 24.5669L314.073 27.1587L312.773 28.4592L310.181 25.8674L311.482 24.5669ZM303.459 32.5896L308.89 27.1587L311.482 29.7505L306.051 35.1815H303.459V32.5896ZM317.196 38.8448H300.711C300.468 38.8448 300.235 38.9413 300.064 39.1131C299.892 39.2848 299.795 39.5178 299.795 39.7607C299.795 40.0036 299.892 40.2365 300.064 40.4083C300.235 40.58 300.468 40.6765 300.711 40.6765H317.196C317.439 40.6765 317.672 40.58 317.844 40.4083C318.016 40.2365 318.112 40.0036 318.112 39.7607C318.112 39.5178 318.016 39.2848 317.844 39.1131C317.672 38.9413 317.439 38.8448 317.196 38.8448Z" fill="#C7C7C7"/>
<path d="M352.303 37.0132C352.546 37.0132 352.779 36.9167 352.951 36.745C353.123 36.5732 353.219 36.3403 353.219 36.0974V30.6023C353.219 30.3594 353.123 30.1265 352.951 29.9547C352.779 29.783 352.546 29.6865 352.303 29.6865C352.061 29.6865 351.828 29.783 351.656 29.9547C351.484 30.1265 351.388 30.3594 351.388 30.6023V36.0974C351.388 36.3403 351.484 36.5732 351.656 36.745C351.828 36.9167 352.061 37.0132 352.303 37.0132ZM361.462 26.0231H357.799V25.1073C357.799 24.3786 357.509 23.6797 356.994 23.1645C356.479 22.6492 355.78 22.3597 355.051 22.3597H353.219C352.491 22.3597 351.792 22.6492 351.277 23.1645C350.761 23.6797 350.472 24.3786 350.472 25.1073V26.0231H346.808C346.566 26.0231 346.333 26.1196 346.161 26.2914C345.989 26.4631 345.893 26.6961 345.893 26.9389C345.893 27.1818 345.989 27.4148 346.161 27.5865C346.333 27.7583 346.566 27.8548 346.808 27.8548H347.724V37.929C347.724 38.6577 348.014 39.3566 348.529 39.8718C349.044 40.3871 349.743 40.6766 350.472 40.6766H357.799C358.527 40.6766 359.226 40.3871 359.741 39.8718C360.257 39.3566 360.546 38.6577 360.546 37.929V27.8548H361.462C361.705 27.8548 361.938 27.7583 362.109 27.5865C362.281 27.4148 362.378 27.1818 362.378 26.9389C362.378 26.6961 362.281 26.4631 362.109 26.2914C361.938 26.1196 361.705 26.0231 361.462 26.0231ZM352.303 25.1073C352.303 24.8644 352.4 24.6314 352.572 24.4597C352.743 24.2879 352.976 24.1914 353.219 24.1914H355.051C355.294 24.1914 355.527 24.2879 355.699 24.4597C355.87 24.6314 355.967 24.8644 355.967 25.1073V26.0231H352.303V25.1073ZM358.714 37.929C358.714 38.1719 358.618 38.4049 358.446 38.5766C358.274 38.7484 358.041 38.8449 357.799 38.8449H350.472C350.229 38.8449 349.996 38.7484 349.824 38.5766C349.652 38.4049 349.556 38.1719 349.556 37.929V27.8548H358.714V37.929ZM355.967 37.0132C356.21 37.0132 356.443 36.9167 356.614 36.745C356.786 36.5732 356.883 36.3403 356.883 36.0974V30.6023C356.883 30.3594 356.786 30.1265 356.614 29.9547C356.443 29.783 356.21 29.6865 355.967 29.6865C355.724 29.6865 355.491 29.783 355.319 29.9547C355.147 30.1265 355.051 30.3594 355.051 30.6023V36.0974C355.051 36.3403 355.147 36.5732 355.319 36.745C355.491 36.9167 355.724 37.0132 355.967 37.0132Z" fill="#C7C7C7"/>
<path d="M334.597 118.218C334.114 118.218 333.642 118.361 333.24 118.629C332.839 118.898 332.526 119.279 332.341 119.725C332.156 120.172 332.108 120.663 332.202 121.136C332.296 121.61 332.529 122.045 332.87 122.387C333.212 122.728 333.647 122.961 334.121 123.055C334.595 123.15 335.086 123.101 335.532 122.916C335.978 122.732 336.36 122.418 336.628 122.017C336.896 121.615 337.04 121.143 337.04 120.66C337.04 120.012 336.782 119.391 336.324 118.933C335.866 118.475 335.245 118.218 334.597 118.218ZM326.049 118.218C325.566 118.218 325.094 118.361 324.693 118.629C324.291 118.898 323.978 119.279 323.793 119.725C323.608 120.172 323.56 120.663 323.654 121.136C323.748 121.61 323.981 122.045 324.322 122.387C324.664 122.728 325.099 122.961 325.573 123.055C326.047 123.15 326.538 123.101 326.984 122.916C327.43 122.732 327.812 122.418 328.08 122.017C328.348 121.615 328.492 121.143 328.492 120.66C328.492 120.012 328.234 119.391 327.776 118.933C327.318 118.475 326.697 118.218 326.049 118.218ZM343.145 118.218C342.662 118.218 342.19 118.361 341.788 118.629C341.387 118.898 341.074 119.279 340.889 119.725C340.704 120.172 340.656 120.663 340.75 121.136C340.844 121.61 341.077 122.045 341.418 122.387C341.76 122.728 342.195 122.961 342.669 123.055C343.142 123.15 343.633 123.101 344.08 122.916C344.526 122.732 344.907 122.418 345.176 122.017C345.444 121.615 345.587 121.143 345.587 120.66C345.587 120.012 345.33 119.391 344.872 118.933C344.414 118.475 343.793 118.218 343.145 118.218Z" fill="#C7C7C7"/>
<g filter="url(#filter0_d_468_323)">
<rect x="26.8745" y="86.4686" width="330.924" height="262.541" rx="12.2112" fill="#FEFEFE" fill-opacity="0.38" shape-rendering="crispEdges"/>
<rect x="27.4851" y="87.0792" width="329.703" height="261.32" rx="11.6007" stroke="#666666" stroke-width="1.22112" stroke-dasharray="2.44 4.88 7.33 9.77" shape-rendering="crispEdges"/>
</g>
<g filter="url(#filter1_d_468_323)">
<rect x="27" y="387" width="330.924" height="262.541" rx="12.2112" fill="#FEFEFE" fill-opacity="0.38" shape-rendering="crispEdges"/>
<rect x="27.6106" y="387.611" width="329.703" height="261.32" rx="11.6007" stroke="#666666" stroke-width="1.22112" stroke-dasharray="2.44 4.88 7.33 9.77" shape-rendering="crispEdges"/>
</g>
<g filter="url(#filter2_d_468_323)">
<rect x="27.1255" y="687.531" width="330.924" height="262.541" rx="12.2112" fill="#FEFEFE" fill-opacity="0.38" shape-rendering="crispEdges"/>
<rect x="27.736" y="688.142" width="329.703" height="261.32" rx="11.6007" stroke="#666666" stroke-width="1.22112" stroke-dasharray="2.44 4.88 7.33 9.77" shape-rendering="crispEdges"/>
</g>
<defs>
<filter id="filter0_d_468_323" x="21.99" y="86.4686" width="340.693" height="272.31" filterUnits="userSpaceOnUse" color-interpolation-filters="sRGB">
<feFlood flood-opacity="0" result="BackgroundImageFix"/>
<feColorMatrix in="SourceAlpha" type="matrix" values="0 0 0 0 0 0 0 0 0 0 0 0 0 0 0 0 0 0 127 0" result="hardAlpha"/>
<feOffset dy="4.88449"/>
<feGaussianBlur stdDeviation="2.44224"/>
<feComposite in2="hardAlpha" operator="out"/>
<feColorMatrix type="matrix" values="0 0 0 0 0 0 0 0 0 0 0 0 0 0 0 0 0 0 0.25 0"/>
<feBlend mode="normal" in2="BackgroundImageFix" result="effect1_dropShadow_468_323"/>
<feBlend mode="normal" in="SourceGraphic" in2="effect1_dropShadow_468_323" result="shape"/>
</filter>
<filter id="filter1_d_468_323" x="22.1155" y="387" width="340.693" height="272.31" filterUnits="userSpaceOnUse" color-interpolation-filters="sRGB">
<feFlood flood-opacity="0" result="BackgroundImageFix"/>
<feColorMatrix in="SourceAlpha" type="matrix" values="0 0 0 0 0 0 0 0 0 0 0 0 0 0 0 0 0 0 127 0" result="hardAlpha"/>
<feOffset dy="4.88449"/>
<feGaussianBlur stdDeviation="2.44224"/>
<feComposite in2="hardAlpha" operator="out"/>
<feColorMatrix type="matrix" values="0 0 0 0 0 0 0 0 0 0 0 0 0 0 0 0 0 0 0.25 0"/>
<feBlend mode="normal" in2="BackgroundImageFix" result="effect1_dropShadow_468_323"/>
<feBlend mode="normal" in="SourceGraphic" in2="effect1_dropShadow_468_323" result="shape"/>
</filter>
<filter id="filter2_d_468_323" x="22.241" y="687.531" width="340.693" height="272.31" filterUnits="userSpaceOnUse" color-interpolation-filters="sRGB">
<feFlood flood-opacity="0" result="BackgroundImageFix"/>
<feColorMatrix in="SourceAlpha" type="matrix" values="0 0 0 0 0 0 0 0 0 0 0 0 0 0 0 0 0 0 127 0" result="hardAlpha"/>
<feOffset dy="4.88449"/>
<feGaussianBlur stdDeviation="2.44224"/>
<feComposite in2="hardAlpha" operator="out"/>
<feColorMatrix type="matrix" values="0 0 0 0 0 0 0 0 0 0 0 0 0 0 0 0 0 0 0.25 0"/>
<feBlend mode="normal" in2="BackgroundImageFix" result="effect1_dropShadow_468_323"/>
<feBlend mode="normal" in="SourceGraphic" in2="effect1_dropShadow_468_323" result="shape"/>
</filter>
</defs>
</svg>
