<svg width="22" height="22" viewBox="0 0 22 22" fill="none" xmlns="http://www.w3.org/2000/svg">
<path d="M9.52188 16.1906C5.84376 16.1906 2.81876 13.2 2.81876 9.4875C2.81876 5.80938 5.80938 2.78438 9.52188 2.78438C13.2344 2.78438 16.225 5.775 16.225 9.4875C16.1906 13.2 13.2 16.1906 9.52188 16.1906ZM9.52188 3.78125C6.35938 3.78125 3.78126 6.35938 3.78126 9.52187C3.78126 12.6844 6.35938 15.2625 9.52188 15.2625C12.6844 15.2625 15.2625 12.6844 15.2625 9.52187C15.2281 6.35938 12.65 3.78125 9.52188 3.78125Z" fill="#666666" fill-opacity="0.8"/>
<path d="M18.4594 19.1813L13.7844 14.5406L14.5406 13.7844L19.1813 18.4594L18.4594 19.1813Z" fill="#666666" fill-opacity="0.8"/>
</svg>
