<svg width="118" height="118" viewBox="0 0 118 118" fill="none" xmlns="http://www.w3.org/2000/svg">
<path d="M59.2753 1.00065C70.7465 1.05509 81.9439 4.50991 91.4516 10.9282C100.959 17.3465 108.35 26.4401 112.69 37.0589C117.029 47.6777 118.123 59.3449 115.831 70.5851C113.54 81.8252 107.967 92.1335 99.8171 100.206C91.6673 108.279 81.3065 113.754 70.0452 115.939C58.7838 118.123 47.1275 116.919 36.5503 112.479C25.9732 108.039 16.9502 100.562 10.6224 90.9938C4.29463 81.4256 0.946244 70.1959 1.00068 58.7247C1.07369 43.3423 7.25432 28.619 18.1829 17.7936C29.1115 6.96826 43.8929 0.927646 59.2753 1.00065ZM58.751 111.476C69.1297 111.525 79.2899 108.495 87.9468 102.77C96.6038 97.0451 103.369 88.8814 107.386 79.3116C111.403 69.7418 112.492 59.1956 110.516 49.0068C108.539 38.8179 103.586 29.4439 96.282 22.0702C88.9779 14.6966 79.6514 9.65437 69.4818 7.58128C59.3121 5.50819 48.7561 6.49731 39.1486 10.4236C29.5411 14.3498 21.3136 21.0368 15.5065 29.639C9.69947 38.2412 6.57369 48.3722 6.52443 58.7509C6.45838 72.6683 11.9237 86.0419 21.7181 95.9297C31.5125 105.818 44.8336 111.41 58.751 111.476Z" fill="#4C934C" fill-opacity="0.9"/>
<path d="M45.3349 28.5538C46.0662 28.5603 46.7651 28.8567 47.2782 29.3778L74.7658 57.1276C75.2778 57.6475 75.5632 58.3489 75.5597 59.0785C75.5563 59.8082 75.2642 60.5068 74.7474 61.0218L46.9975 88.5095C46.4671 88.9594 45.7863 89.1926 45.0913 89.1625C44.3964 89.1323 43.7384 88.8411 43.2488 88.3469C42.7593 87.8526 42.4743 87.1919 42.4507 86.4967C42.4272 85.8015 42.6668 85.123 43.1218 84.5968L68.9014 59.0469L43.3655 33.2535C42.9834 32.8655 42.7245 32.3732 42.6214 31.8385C42.5184 31.3037 42.5757 30.7505 42.7861 30.2482C42.9966 29.746 43.3509 29.3171 43.8044 29.0157C44.2578 28.7142 44.7904 28.5535 45.3349 28.5538Z" fill="#53A548" fill-opacity="0.87"/>
</svg>
