<svg width="118" height="118" viewBox="0 0 118 118" fill="none" xmlns="http://www.w3.org/2000/svg">
<path d="M59.2875 1.0007C70.7587 1.05758 81.9554 4.51478 91.4618 10.9351C100.968 17.3555 108.357 26.4506 112.694 37.0703C117.032 47.6901 118.122 59.3575 115.829 70.5971C113.535 81.8368 107.96 92.1439 99.8083 100.215C91.6567 108.286 81.2948 113.759 70.033 115.941C58.7711 118.123 47.1151 116.917 36.5389 112.474C25.9627 108.032 16.9413 100.553 10.6156 90.9835C4.2898 81.414 0.943806 70.1836 1.00069 58.7124C1.07696 43.33 7.26073 28.608 18.1916 17.7849C29.1225 6.9619 43.9052 0.924426 59.2875 1.0007ZM58.7398 111.476C69.1184 111.527 79.2793 108.5 87.9375 102.776C96.5956 97.0531 103.362 88.8908 107.381 79.3219C111.401 69.7529 112.492 59.207 110.518 49.0177C108.544 38.8284 103.592 29.4534 96.2898 22.0782C88.9873 14.7029 79.6618 9.65876 69.4926 7.5835C59.3234 5.50825 48.7672 6.49513 39.1588 10.4193C29.5505 14.3435 21.3216 21.0288 15.5127 29.6298C9.70383 38.2307 6.57589 48.3611 6.52443 58.7398C6.45542 72.6571 11.9179 86.0319 21.7102 95.9218C31.5024 105.812 44.8224 111.406 58.7398 111.476Z" fill="#4C934C" fill-opacity="0.13"/>
<path d="M45.3413 28.5509C46.0725 28.5576 46.7713 28.854 47.2843 29.3753L74.7661 57.1309C75.2779 57.6509 75.5632 58.3524 75.5596 59.082C75.5559 59.8117 75.2637 60.5102 74.7468 61.0252L46.9911 88.5069C46.4605 88.9568 45.7797 89.1898 45.0848 89.1595C44.3898 89.1292 43.7319 88.8378 43.2424 88.3435C42.753 87.8492 42.4681 87.1884 42.4447 86.4932C42.4213 85.7979 42.6611 85.1195 43.1162 84.5934L68.9013 59.049L43.3708 33.2502C42.9888 32.8621 42.73 32.3697 42.6271 31.835C42.5241 31.3002 42.5815 30.747 42.7921 30.2448C43.0027 29.7426 43.357 29.3138 43.8106 29.0124C44.2641 28.711 44.7967 28.5504 45.3413 28.5509Z" fill="#53A548" fill-opacity="0.13"/>
</svg>
