<svg width="56" height="56" viewBox="0 0 56 56" fill="none" xmlns="http://www.w3.org/2000/svg">
<path d="M28 49.2903C40.1503 49.2903 50 39.5995 50 27.6452C50 15.6909 40.1503 6 28 6C15.8497 6 6 15.6909 6 27.6452C6 39.5995 15.8497 49.2903 28 49.2903Z" fill="#31AF91"/>
<path d="M24.6656 38.8735L14.525 28.8964C14.3875 28.7611 14.3875 28.5582 14.525 28.4229L17.4469 25.5482C17.5844 25.4129 17.7906 25.4129 17.9281 25.5482L24.9062 32.4137L38.0375 19.4943C38.175 19.359 38.3812 19.359 38.5187 19.4943L41.4406 22.369C41.5781 22.5043 41.5781 22.7072 41.4406 22.8425L25.1469 38.8735C25.0094 39.0087 24.8031 39.0087 24.6656 38.8735Z" fill="white"/>
<circle cx="28" cy="28" r="28" fill="#4C934C" fill-opacity="0.54"/>
</svg>
