<svg width="56" height="56" viewBox="0 0 56 56" fill="none" xmlns="http://www.w3.org/2000/svg">
<circle cx="28" cy="28" r="28" fill="#DCDE75" fill-opacity="0.54"/>
<path d="M26.9152 9.71041L13.1665 36.856C13.0572 37.0733 12.9997 37.3196 13 37.5701C13.0003 37.8206 13.0582 38.0667 13.168 38.2837C13.2778 38.5007 13.4356 38.6811 13.6257 38.8068C13.8159 38.9325 14.0316 38.9991 14.2513 39H41.7487C41.9684 38.9991 42.1841 38.9325 42.3743 38.8068C42.5644 38.6811 42.7222 38.5007 42.832 38.2837C42.9418 38.0667 42.9997 37.8206 43 37.5701C43.0003 37.3196 42.9428 37.0733 42.8335 36.856L29.0848 9.71041C28.9742 9.49424 28.8159 9.31489 28.6255 9.19024C28.4352 9.06559 28.2195 9 28 9C27.7805 9 27.5648 9.06559 27.3745 9.19024C27.1841 9.31489 27.0258 9.49424 26.9152 9.71041Z" fill="#EFCC00"/>
<path d="M26.0017 32.8602C26.0017 32.4614 26.1054 32.0716 26.2997 31.74C26.4941 31.4085 26.7703 31.15 27.0935 30.9974C27.4167 30.8448 27.7723 30.8049 28.1154 30.8827C28.4585 30.9605 28.7737 31.1525 29.021 31.4345C29.2684 31.7165 29.4368 32.0758 29.5051 32.4669C29.5733 32.858 29.5383 33.2634 29.4044 33.6318C29.2705 34.0002 29.0438 34.3151 28.753 34.5367C28.4621 34.7582 28.1202 34.8765 27.7704 34.8765C27.5354 34.8879 27.301 34.8436 27.0818 34.7463C26.8627 34.649 26.6637 34.5009 26.4974 34.3113C26.3312 34.1218 26.2012 33.8949 26.1159 33.6451C26.0305 33.3953 25.9917 33.128 26.0017 32.8602ZM26.6443 29.7283L26.1962 19.647H29.2973L28.8669 29.7283H26.6443Z" fill="#FEFEFE"/>
</svg>
